<?xml version="1.0" encoding="utf-8"?>
<!-- Generator: Adobe Illustrator 26.3.1, SVG Export Plug-In . SVG Version: 6.00 Build 0)  -->
<svg version="1.1" xmlns="http://www.w3.org/2000/svg" xmlns:xlink="http://www.w3.org/1999/xlink" x="0px" y="0px"
	 viewBox="0 0 460.8 259.2" style="enable-background:new 0 0 460.8 259.2;" xml:space="preserve">
<style type="text/css">
	.st0{fill-rule:evenodd;clip-rule:evenodd;fill:#142566;}
	.st1{fill:#FFFFFF;}
	.st2{fill-rule:evenodd;clip-rule:evenodd;fill:#7AB6CB;}
</style>
<g id="Layer_1" xmlns:xodm="http://www.corel.com/coreldraw/odm/2003">
	<rect class="st0" width="460.8" height="259.2"/>
	<g>
		<polygon class="st1" points="395.8,50 399.3,53.7 382.8,78.1 362.6,71.2 360.7,49.1 382.3,51.6 		"/>
		<path class="st2" d="M314,15.6c32.1,0,61.1,13.2,81.9,34.4L379,68.6l-8.8-12.4h-3.5l10.5,18.2h3.5l18.6-20.8
			c18.2,20.3,29.3,47.1,29.3,76.5c0,63.3-51.3,114.6-114.6,114.6s-114.6-51.3-114.6-114.6S250.7,15.6,314,15.6L314,15.6z"/>
	</g>
</g>
<g id="Layer_2">
	<g>
		<path class="st1" d="M82.3,181.6c-0.9-0.8-1.4-1.8-1.4-3c0-0.8,0.2-1.8,0.5-2.9c0.3-1.2,0.4-2.2,0.4-2.8c0-7.8-0.4-22.9-1.3-45.1
			c-0.9-19-1.3-34-1.3-45c0-0.8,0.3-1.4,0.9-1.9c0.6-0.5,1.4-0.7,2.2-0.7c1.1,0,2,0.4,2.8,1.1c0.8,0.7,1.2,1.6,1.2,2.7
			c0,5.3,0.3,13.2,0.8,23.8c0.4,11.7,0.7,19.6,0.7,23.8l0.1,1.6v1.6v0.9v0.7c0.3,7.7,0.4,19.1,0.4,34.3v3.4h10.2
			c1.8,1.3,2.8,2.6,2.8,4c0,1-0.3,1.8-1,2.6c-0.7,0.7-1.4,1.1-2.3,1.1c-0.3,0-0.7-0.1-1.5-0.3l-0.5-0.1c-0.5,0.1-1.4,0.1-2.5,0.1
			h-2.2c-0.6-0.1-1.3-0.1-2.1-0.1c-0.9,1.1-2.1,1.6-3.7,1.6C84.2,182.9,83.2,182.4,82.3,181.6z"/>
		<path class="st1" d="M115.5,181.5c-1.5-0.4-2.2-1.7-2.2-3.7v-76.7c0-1.5-0.3-3.7-0.8-6.7c-0.6-2.7-0.9-5-0.9-6.7v-0.4
			c1.5-2.5,2.6-4,3.3-4.8c1.2,0,2.9-0.2,4.9-0.5c1.8-0.4,3.5-0.5,4.9-0.5c1.4,0,2.8,0.4,4.1,1.3c1.3,0.8,2,1.8,2,3c0,2.6-2,4-6.1,4
			h-1.8c-0.5-0.1-1.1-0.1-1.8-0.1c-0.8,0-1.3,0-1.5,0.1c0,3,0.2,6.6,0.5,10.8l0.3,3.7l0.3,7.3c0,1.7-0.1,4.2-0.4,7.7l-0.3,7.4
			l1.8-0.4c1.8-0.5,3.2-0.8,4.4-0.8c1,0,1.8,0.4,2.6,1.1c0.8,0.7,1.2,1.6,1.2,2.6c0,1.1-0.3,2-1,2.8c-0.7,0.8-1.5,1.3-2.4,1.3
			l-1.6-0.1h-1.7c-1.3,0-2.2,0.3-2.8,0.9v40.8l7.4-0.4c5,0,7.5,1.1,7.5,3.4v0.5c-0.5,1.1-1.5,1.9-2.9,2.6c-1.4,0.7-2.8,1.1-4.1,1.3
			l-4.4,0.1h-4.1C118.2,182.2,116.7,182,115.5,181.5z"/>
		<path class="st1" d="M148.3,182.6c-1.4-0.8-2.1-1.7-2.1-2.8s0.3-1.9,0.8-2.6s1.3-1,2.2-1c0.9,0,2.2,0.4,3.8,1.1
			c1.8,0.7,3,1.1,3.4,1.1c1.7,0,3.2-0.7,4.6-2.2c1.4-1.5,2.4-3.4,3.2-5.7c1.6-4.4,2.4-8.4,2.4-11.9c0-3.8-0.6-7.8-1.8-11.9
			c-1.2-4.2-2.8-8.2-4.8-12.2l-2.1-4.2c-2.2-4.4-3.9-7.9-5.1-10.4c-1.2-2.6-2.2-5.3-3.1-8.3c-1.3-4.2-2-8.3-2-12.3
			c0-3.2,0.5-6.2,1.6-9c1.1-2.8,2.7-5.2,5-7.1c2.2-2.1,4.9-3.2,8.2-3.2c1.6,0,3.1,0.5,4.6,1.4c1.5,0.9,2.6,2.1,3.2,3.5l-2.2,2.8
			c-2.3,0-4-0.4-5.1-1.3c-1.6,0.2-3,0.9-4.2,2.3c-1.2,1.4-2.1,2.9-2.7,4.7c-0.5,1.7-0.8,3.3-0.8,5c0,3.3,0.5,6.8,1.4,10.2
			c0.9,3.5,2.1,6.8,3.6,9.8l9.2,18.5c1.5,3.2,2.7,6.7,3.6,10.7c0.9,4,1.3,7.9,1.3,11.9c0,5.8-1.4,11.3-4.2,16.4
			c-1.5,2.6-3.4,4.7-5.8,6.3c-2.4,1.5-5,2.3-7.9,2.3C153.4,184.3,150.6,183.7,148.3,182.6z"/>
		<path class="st1" d="M189.7,179.2l0.3-16.2l0.3-16.2c0-5.9-0.1-14.8-0.4-26.8c-0.3-11.9-0.4-20.8-0.4-26.8v-0.8
			c0-2.3,0.2-4.4,0.7-6.3c0.5-2.4,1.9-3.6,4.2-3.6c6.2,0,11,2,14.7,5.9c3.6,4,5.4,9.2,5.4,15.7c0,4-1.1,8.1-3.2,12.4
			c-2.1,4.3-4.6,7.5-7.5,9.6c5.1,3.4,8.9,7.9,11.3,13.3c2.4,5.4,3.6,11.4,3.6,17.9c0,3.1-1.1,6.9-3.2,11.5c-2.6,5.5-6,9.4-10.4,11.7
			c-2.6,1.3-5.5,2-8.7,2h-0.5C191.7,182.5,189.7,181.4,189.7,179.2z M202.9,118.4c1.3-2.5,2.6-5.5,3.7-9c0.3-1,0.7-2.2,1.3-3.7v-4.6
			c0-2.6-1-5.2-2.9-7.7c-1.9-2.5-4.1-3.7-6.6-3.7c-1.2,0-1.8,1.4-1.8,4.1c0,5.8,0.1,11,0.3,15.6l0.3,14.7
			C199.3,123.6,201.3,121.7,202.9,118.4z M207.9,169.7c2.6-3.3,3.8-7.3,3.8-12c0-4-0.3-7.8-1-11.2c-0.7-3.4-1.5-6-2.6-7.7
			c-1-1.7-1.9-3.1-2.9-4.2c-1-1.1-1.8-1.9-2.5-2.2l-1.1-0.4h-4.8c0.4,10.1,0.7,24.7,0.7,43.7C201.9,175,205.3,173,207.9,169.7z"/>
		<path class="st1" d="M241.8,182.7c-1.9-1.6-3.6-3.7-5-6.5c-2.6-4.8-4.4-11.3-5.7-19.5c-0.9-5.7-1.5-12.3-2-19.8l-0.1-7v-7.1
			c-0.1-2.3-0.1-5.1-0.1-8.3c0-5.3,0.2-9.9,0.7-14c0.4-4.2,1.2-8.4,2.6-12.5c1.4-3.6,3.4-6.2,6.1-7.7c1.6-0.7,3.2-1.1,4.8-1.1
			c4.7,0,8.4,1.8,11.1,5.5c3,4.1,5,8.8,5.9,13.9c1.4,6.2,2.2,12.1,2.4,17.7c0.3,6.2,0.5,12.1,0.5,17.7v7.5c0,1.5-0.2,4.3-0.7,8.4
			c-0.4,3.3-0.5,6-0.5,8.3v0.5c-0.5,2.5-0.8,5.4-0.8,8.7c0,2.5-0.5,5-1.6,7.7c-1.1,2.6-2.6,4.9-4.5,6.7c-1.9,2.1-4.1,3.2-6.6,3.2
			C245.9,185.1,243.7,184.3,241.8,182.7z M253,173c1.1-2.9,1.8-6.4,2.3-10.6c0.5-4.2,0.9-8.9,1.3-14.2c0.2-2.3,0.3-5.2,0.3-8.8
			l-0.1-12.1c-0.2-4.8-0.7-10.7-1.6-17.8c-0.7-6.1-2-11.4-4-16.1c-0.9-2.2-2-3.9-3.3-5.1c-1.3-1.2-2.7-1.8-4.2-1.8
			c-2.2,0-3.8,1.7-4.9,5.1c-1.3,3.6-2.2,7.6-2.6,11.9c-0.5,4.7-0.8,9.1-0.9,13.3l-0.1,4.4c-0.1,1.2-0.1,2.9-0.1,5v0.5
			c0,5.9,0.6,13.2,1.8,21.8c1.4,11.7,3.5,20,6.2,24.9c1.8,3.1,3.6,4.6,5.5,4.6C250.3,177.8,251.8,176.2,253,173z"/>
		<path class="st1" d="M284.6,180.4c-0.7-1.3-1.1-2.8-1.1-4.7c0-2.9,0.2-6.5,0.5-10.7l0.3-3.4l0.3-7c0-3.1-0.3-9.9-0.9-20.6
			c-0.6-10.6-0.9-17.5-0.9-20.6c0-0.3,0-0.8,0.1-1.5c0-0.7,0.1-1.9,0.1-3.5c0.1-1.8,0.1-3.9,0.1-6.5c0-6.4-0.4-10.5-1.3-12.3
			c-0.5,0-1.7,0.1-3.4,0.4l-3.7,0.3c-1.1,0-2.2-0.3-3-1c-0.9-0.7-1.3-1.5-1.3-2.6s1.1-2,3.2-2.8c3.1-1.1,8.3-1.8,15.7-2.2
			c3-0.2,4.8-0.3,5.4-0.3c1.1,0,2,0.4,2.9,1.1c0.9,0.7,1.3,1.6,1.3,2.6s-0.4,1.9-1.1,2.6c-0.8,0.7-1.7,1-2.8,1l-2.4-0.1
			c-0.7-0.1-1.5-0.1-2.4-0.1h-1.3c0.6,6,0.9,11.4,0.9,16.2l-0.1,8.4c-0.1,2.6-0.1,5.4-0.1,8.6c0,4.2,0.2,9.3,0.5,15.2
			c0.4,7.3,0.7,12.4,0.7,15.2c0,3.3,0.2,7.3,0.5,11.9c0.4,4.7,0.5,8.6,0.5,11.9c0,4.3-1.3,6.5-3.8,6.5
			C286.4,182.3,285.4,181.7,284.6,180.4z"/>
		<path class="st1" d="M323.2,182.7c-1.9-1.6-3.6-3.7-5-6.5c-2.6-4.8-4.4-11.3-5.7-19.5c-0.9-5.7-1.5-12.3-2-19.8l-0.1-7v-7.1
			c-0.1-2.3-0.1-5.1-0.1-8.3c0-5.3,0.2-9.9,0.7-14c0.3-4.2,1.2-8.4,2.6-12.5c1.4-3.6,3.4-6.2,6.1-7.7c1.6-0.7,3.2-1.1,4.8-1.1
			c4.7,0,8.4,1.8,11.1,5.5c3,4.1,5,8.8,5.9,13.9c1.4,6.2,2.2,12.1,2.4,17.7c0.4,6.2,0.5,12.1,0.5,17.7v7.5c0,1.5-0.2,4.3-0.7,8.4
			c-0.4,3.3-0.5,6-0.5,8.3v0.5c-0.5,2.5-0.8,5.4-0.8,8.7c0,2.5-0.5,5-1.6,7.7s-2.6,4.9-4.5,6.7c-1.9,2.1-4.1,3.2-6.6,3.2
			C327.3,185.1,325.2,184.3,323.2,182.7z M334.5,173c1.1-2.9,1.8-6.4,2.3-10.6c0.5-4.2,0.9-8.9,1.3-14.2c0.2-2.3,0.3-5.2,0.3-8.8
			l-0.1-12.1c-0.2-4.8-0.7-10.7-1.6-17.8c-0.7-6.1-2-11.4-4-16.1c-0.9-2.2-2-3.9-3.3-5.1c-1.3-1.2-2.7-1.8-4.2-1.8
			c-2.2,0-3.8,1.7-4.9,5.1c-1.3,3.6-2.2,7.6-2.6,11.9c-0.5,4.7-0.8,9.1-0.9,13.3l-0.1,4.4c-0.1,1.2-0.1,2.9-0.1,5v0.5
			c0,5.9,0.6,13.2,1.8,21.8c1.4,11.7,3.5,20,6.2,24.9c1.8,3.1,3.6,4.6,5.5,4.6C331.7,177.8,333.2,176.2,334.5,173z"/>
		<path class="st1" d="M370.7,181.8c-2.1-1.1-3.8-2.7-5.3-4.6c-1.3-1.8-2.5-4.2-3.6-7.1c-1.1-2.9-1.8-5.8-2.4-8.9
			c-1.1-5.2-1.8-12-2.1-20.5c-0.1-2-0.1-5.5-0.1-10.4V122c0.1-2.4,0.1-4.8,0.1-7.4c0-5.2,0.3-9.3,0.9-12.3c-0.3-1.3-0.4-2.7-0.4-4.1
			c0-5.3,2-9.5,5.9-12.8c4-3.3,9-4.9,15-4.9c2.3,0,4.4,0.6,6.3,1.8c1.9,1.2,2.9,2.8,2.9,4.6c0,0.9-0.4,1.6-1.1,2.1
			c-0.7,0.5-1.6,0.8-2.6,0.8c-0.9,0-1.8-0.1-2.8-0.4s-1.7-0.7-1.9-1.2h-1.7v-0.3c-3.3,0-6,0.7-8.2,2.1c-1.6,1.1-2.8,3-3.7,5.7
			c-0.4,1-0.6,2.2-0.8,3.7c-0.2,1.5-0.3,2.9-0.3,4.1c-0.1,0.7-0.1,2.1-0.1,4.2l0.3,4.6l0.1,4.5c0,1.3-0.2,2.9-0.5,4.6
			c-0.4,2.2-0.7,3.7-0.7,4.6v3.2c0,3.4,0.1,8.1,0.4,14.1c0.1,5,0.7,10,1.7,15c0.8,4.7,2.3,8.6,4.5,11.9c2.1,3.3,5,5,8.6,5
			c1.5,0,3.3-0.8,5.5-2.4c2.4-1.6,4-2.4,5-2.4c1.2,0,2.5,0.7,3.8,2c0,3.3-1.2,5.8-3.7,7.5c-2.3,1.6-5,2.6-8.2,3
			c-1.8,0.2-3.2,0.3-4.2,0.3C375,183.5,372.8,182.9,370.7,181.8z"/>
	</g>
</g>
</svg>
