<?xml version="1.0" encoding="utf-8"?>
<!-- Generator: Adobe Illustrator 26.3.1, SVG Export Plug-In . SVG Version: 6.00 Build 0)  -->
<svg version="1.1" id="Layer_1" xmlns="http://www.w3.org/2000/svg" xmlns:xlink="http://www.w3.org/1999/xlink" x="0px" y="0px"
	 viewBox="0 0 256 256" style="enable-background:new 0 0 256 256;" xml:space="preserve">
<style type="text/css">
	.st0{fill:#FFFFFF;}
</style>
<path class="st0" d="M220.2,104l-20-34.7c-7.8-13.4-25-17.9-38.4-10.1c-3.5,2.1-6.5,4.8-8.9,8.2l-17.3-30
	c-7.8-13.4-24.9-18-38.3-10.3c-4,2.4-7.4,5.7-9.9,9.6c-3.3-2.9-7.2-5.1-11.5-6.2c-7.2-2-14.8-1-21.2,2.8
	c-13.4,7.6-18,24.7-10.4,38.1c0,0,0.1,0.1,0.1,0.1l3.4,5.8c-4.2,0.4-8.2,1.6-11.8,3.7c-13.3,7.8-17.8,24.8-10.2,38.2l42,72.8
	c23.7,42.4,77.3,57.6,119.7,33.9s57.6-77.3,33.9-119.7C221,105.4,220.6,104.7,220.2,104z M213.5,166.6
	c-4.9,18.5-16.9,34.2-33.5,43.7c-34.4,19.9-78.5,8.1-98.4-26.3l-42-72.8c-3.3-5.7-1.3-13.1,4.4-16.4c5.7-3.3,13.1-1.3,16.4,4.4
	l22,38.1c2.2,3.8,7.1,5.2,11,2.9c3.8-2.2,5.2-7.1,2.9-10.9l-22-38.1l0,0l-16-27.7c-1.6-2.8-2-6-1.2-9.1c0.8-3.1,2.8-5.7,5.6-7.3
	c2.8-1.6,6-2,9.1-1.2c3.1,0.9,5.7,2.9,7.3,5.6L87,65.4h0.1l26,45c1.4,2.5,4,4.1,6.9,4c1.4,0,2.8-0.4,4-1.1c3.8-2.2,5.1-7.1,2.9-10.9
	l-26-45l0,0c-3.3-5.7-1.3-13.1,4.4-16.4c5.7-3.3,13.1-1.3,16.4,4.4l30,51.9l0,0l6.3,11c-18,15-22.6,40.7-10.9,61
	c2.5,3.6,7.5,4.6,11.1,2c3.2-2.2,4.4-6.5,2.7-10c-8.8-15.3-3.6-34.9,11.7-43.7c1.9-1.1,3.2-2.8,3.8-4.9c0.5-2,0.2-4.2-0.8-6
	l-10-17.4c-3.3-5.8-1.2-13.1,4.6-16.3c2.7-1.5,5.9-1.9,8.9-1.2c3,0.8,5.6,2.8,7.2,5.5l20,34.7C216,128.5,218.6,148.2,213.5,166.6z
	 M87.7,244.6c-1.5,2.1-4,3.4-6.6,3.4c-1.6,0-3.2-0.5-4.6-1.4c-14.5-10-26.6-23.2-35.4-38.6c-2.5-3.6-1.6-8.6,2-11.1
	c3.6-2.5,8.6-1.6,11.1,2c0.2,0.3,0.4,0.7,0.6,1.1c7.6,13.3,18.2,24.7,30.8,33.4C89.3,236,90.2,240.9,87.7,244.6z M168,31
	c0-4.4,3.6-8,8-8l0,0c21.4,0,41.2,11.5,52,30c2.2,3.8,0.9,8.6-2.8,10.8c-0.1,0-0.1,0.1-0.2,0.1c-1.2,0.8-2.6,1.1-4,1.1
	c-2.8,0-5.5-1.5-6.9-4c-7.9-13.6-22.4-22-38.1-22C171.6,39,168,35.4,168,31z"/>
</svg>
